<svg width="13" height="12" viewBox="0 0 13 12" fill="none" xmlns="http://www.w3.org/2000/svg">
<path fill-rule="evenodd" clip-rule="evenodd" d="M8.97 0C8.68283 0 8.45 0.214902 8.45 0.48V1.86L6.68636 0.720426C6.57449 0.64812 6.42551 0.64812 6.31364 0.720426L0.138625 4.71043C0.0517465 4.76657 0 4.85832 0 4.95618L0 5.42382C0 5.66652 0.295971 5.80878 0.511375 5.66958L1.95 4.74L1.95 11.52C1.95 11.7851 2.18281 12 2.47 12L10.53 12C10.8172 12 11.05 11.7851 11.05 11.52V4.74L12.4886 5.66958C12.7041 5.80878 13 5.66652 13 5.42382V4.95618C13 4.85832 12.9483 4.76657 12.8614 4.71043L11.05 3.54V0.48C11.05 0.214902 10.8172 0 10.53 0L8.97 0ZM10.27 3.036V0.96C10.27 0.827454 10.1536 0.72 10.01 0.72L9.49 0.72C9.34641 0.72 9.23 0.827454 9.23 0.96V2.364L10.27 3.036ZM10.27 4.236V9H8.45V6.48C8.45 6.21492 8.21717 6 7.93 6H5.07C4.78281 6 4.55 6.21492 4.55 6.48V9H2.73L2.73 4.236L6.31364 1.92043C6.42551 1.84812 6.57449 1.84812 6.68636 1.92043L10.27 4.236ZM2.73 9.72V11.04C2.73 11.1725 2.84641 11.28 2.99 11.28H4.55L4.55 9.72H2.73ZM8.45 9.72H10.27V11.04C10.27 11.1725 10.1536 11.28 10.01 11.28H8.45V9.72ZM7.67195 9L7.67195 11.28H7.67L5.33084 11.28H5.33L5.33 6.96C5.33 6.82746 5.44641 6.72 5.59 6.72H7.41C7.55358 6.72 7.67 6.82746 7.67 6.96V9H7.67195Z" fill="#DEE4EE"/>
</svg>
