<svg width="11" height="13" viewBox="0 0 11 13" fill="none" xmlns="http://www.w3.org/2000/svg">
<path fill-rule="evenodd" clip-rule="evenodd" d="M3.05809 2.38267C3.00031 1.08541 3.97357 0 5.19457 0L5.80543 0C7.02649 0 7.99975 1.08541 7.94194 2.38267L7.82613 4.98267C7.78977 5.79878 7.35228 6.49759 6.72222 6.8677V8.125L9.22277 8.78988C9.93086 8.97819 10.4665 9.5953 10.5865 10.3611L11 13H7.45556L6.72222 13H4.27778H3.54444H0L0.413502 10.3611C0.533494 9.5953 1.06913 8.97819 1.77724 8.78988L4.27778 8.125V6.86764C3.64773 6.49759 3.21027 5.79878 3.17392 4.98267L3.05809 2.38267ZM5.68963 7.15C5.79113 7.15 5.89105 7.14246 5.98889 7.1279V8.45H5.01111V7.12783C5.10895 7.14246 5.20887 7.15 5.31043 7.15H5.68963ZM4.19047 12.35H4.46111L5.18632 9.77873L4.92366 8.60542L3.73074 8.9271L4.19047 12.35ZM2.93966 9.14043L1.93508 9.41129C1.46483 9.5381 1.1096 9.9487 1.02984 10.4577L0.733333 12.35H3.44259L2.93966 9.14043ZM10.2667 12.35H7.55743L8.06031 9.14043L9.06492 9.41129C9.53517 9.5381 9.89041 9.9487 9.97016 10.4577L10.2667 12.35ZM6.80955 12.35L7.26923 8.9271L6.07634 8.60542L5.81368 9.77873L6.53889 12.35L6.80955 12.35ZM5.11366 0.78C4.33919 0.78 3.72484 1.47423 3.77169 2.2965L3.92724 5.02651C3.97025 5.78129 4.55828 6.37 5.26924 6.37H5.73082C6.44172 6.37 7.02979 5.78129 7.07282 5.02651L7.22834 2.29651C7.27522 1.47423 6.66087 0.78 5.88634 0.78L5.11366 0.78Z" fill="#DEE4EE"/>
</svg>
