<svg width="12" height="12" viewBox="0 0 12 12" fill="none" xmlns="http://www.w3.org/2000/svg">
<path fill-rule="evenodd" clip-rule="evenodd" d="M6 12C9.31368 12 12 9.31368 12 6C12 2.68629 9.31368 0 6 0C2.68629 0 0 2.68629 0 6C0 9.31368 2.68629 12 6 12ZM6 11.28C8.91606 11.28 11.28 8.91606 11.28 6C11.28 3.08393 8.91606 0.72 6 0.72C3.08393 0.72 0.72 3.08393 0.72 6C0.72 8.91606 3.08393 11.28 6 11.28ZM1.98 3.9C1.88059 3.9 1.8 3.98059 1.8 4.08L1.8 4.32C1.8 4.41941 1.88059 4.5 1.98 4.5L3.37922 4.5C3.29143 4.97178 3.24 5.47302 3.24 6C3.24 6.30912 3.25769 6.60936 3.29004 6.9L1.38 6.9C1.28059 6.9 1.2 6.98058 1.2 7.08V7.32C1.2 7.41942 1.28059 7.5 1.38 7.5L3.37922 7.5C3.59899 8.68092 4.04663 9.67716 4.48604 10.4297C4.75623 10.522 5.03754 10.5903 5.32746 10.6321C4.8513 9.85974 4.33929 8.79006 4.09922 7.5H7.9008C7.66068 8.79006 7.1487 9.85974 6.67254 10.6321C6.96246 10.5903 7.2438 10.522 7.51398 10.4297C7.95336 9.67716 8.40102 8.68092 8.6208 7.5L10.62 7.5C10.7194 7.5 10.8 7.41942 10.8 7.32V7.08C10.8 6.98058 10.7194 6.9 10.62 6.9L8.70996 6.9C8.7423 6.60936 8.76 6.30912 8.76 6C8.76 5.47302 8.70858 4.97178 8.6208 4.5L10.02 4.5C10.1194 4.5 10.2 4.41941 10.2 4.32V4.08C10.2 3.98059 10.1194 3.9 10.02 3.9H8.48646C8.24532 2.97938 7.8768 2.19174 7.51398 1.5703C7.2438 1.47798 6.96246 1.40969 6.67254 1.36796C7.07274 2.01712 7.49832 2.87636 7.76646 3.9L4.23356 3.9C4.50167 2.87636 4.92726 2.01712 5.32746 1.36796C5.03754 1.40969 4.75622 1.47798 4.48604 1.5703C4.12317 2.19174 3.75469 2.97938 3.51356 3.9H1.98ZM7.98996 6.9C8.0223 6.60936 8.04 6.30912 8.04 6C8.04 5.47302 7.98858 4.97178 7.9008 4.5H4.09922C4.01143 4.97178 3.96 5.47302 3.96 6C3.96 6.30912 3.97769 6.60936 4.01004 6.9H7.98996Z" fill="#DEE4EE"/>
</svg>
