<svg width="10" height="11" viewBox="0 0 10 11" fill="none" xmlns="http://www.w3.org/2000/svg">
<path fill="#DEE4EE" fill-rule="evenodd" clip-rule="evenodd" d="M3.88135 0.495275C3.90871 0.214115 4.13896 0 4.41391 0L5.58605 0C5.86105 0 6.09131 0.21411 6.11866 0.495275L6.19439 1.27346C6.86717 1.47387 7.47166 1.8393 7.96369 2.32432L8.65847 2.00212C8.90912 1.88588 9.20467 1.98372 9.34217 2.22843L9.92824 3.27157C10.0657 3.51628 10.0004 3.82823 9.77715 3.99315L9.15907 4.44972C9.2393 4.78626 9.28179 5.13805 9.28179 5.5C9.28179 5.86196 9.2393 6.21374 9.15907 6.55028L9.77715 7.00684C10.0004 7.17178 10.0657 7.48374 9.92824 7.72844L9.34217 8.77156C9.20467 9.01626 8.90912 9.11411 8.65847 8.99789L7.96369 8.6757C7.47166 9.16069 6.86717 9.52611 6.19439 9.72653L6.11866 10.5047C6.09131 10.7859 5.86105 11 5.58605 11H4.41391C4.13896 11 3.90871 10.7859 3.88135 10.5047L3.80562 9.72653C3.13284 9.52611 2.52832 9.16069 2.03629 8.6757L1.34152 8.99789C1.09089 9.11411 0.795324 9.01626 0.657835 8.77156L0.0717559 7.72844C-0.0657332 7.48374 -0.000403385 7.17178 0.222866 7.00684L0.840925 6.55028C0.760716 6.21374 0.718181 5.86196 0.718181 5.5C0.718181 5.13805 0.760716 4.78626 0.840925 4.44972L0.222866 3.99315C-0.000403385 3.82823 -0.0657332 3.51628 0.0717559 3.27157L0.657835 2.22843C0.795324 1.98372 1.09089 1.88588 1.34152 2.00212L2.03629 2.32432C2.52832 1.8393 3.13284 1.47387 3.80562 1.27346L3.88135 0.495275ZM5.48168 0.66L5.62213 1.81443C6.49016 1.96806 7.25302 2.43763 7.79451 3.10377L8.83815 2.65132L9.31985 3.50868L8.41746 4.21061C8.56111 4.61258 8.63952 5.04685 8.63952 5.5C8.63952 5.95315 8.56111 6.38743 8.41746 6.78937L9.31985 7.49133L8.83815 8.34867L7.79451 7.89624C7.25302 8.56235 6.49016 9.03194 5.62213 9.18555L5.48168 10.34H4.51828L4.37789 9.18555C3.50983 9.03194 2.74699 8.56235 2.20548 7.89624L1.16187 8.34867L0.680164 7.49133L1.58253 6.78937C1.43888 6.38743 1.36045 5.95315 1.36045 5.5C1.36045 5.04685 1.43888 4.61258 1.58253 4.21061L0.680164 3.50868L1.16187 2.65132L2.20548 3.10377C2.74699 2.43763 3.50983 1.96806 4.37789 1.81443L4.51828 0.66L5.48168 0.66ZM7.08153 3.36101C8.23114 4.54234 8.23114 6.45766 7.08153 7.63901C5.93192 8.82035 4.06804 8.82035 2.91843 7.63901C1.76883 6.45766 1.76883 4.54234 2.91843 3.36101C4.06804 2.17967 5.93192 2.17967 7.08153 3.36101ZM6.62739 7.17233C5.85886 7.96202 4.68216 8.07648 3.79529 7.51575L4.30766 6.98923C4.9045 7.28222 5.64102 7.17475 6.13536 6.66672C6.62975 6.15873 6.73433 5.40188 6.44921 4.78858L5.7569 5.5C5.54789 5.71478 5.20899 5.71478 4.99998 5.5C4.79097 5.28522 4.79097 4.93696 4.99998 4.72219L5.6923 4.01076C5.09546 3.71777 4.35894 3.82528 3.86459 4.33328C3.37024 4.84126 3.26562 5.59812 3.55074 6.21143L3.03837 6.73794C2.4927 5.82659 2.60411 4.61741 3.37259 3.8277C4.27138 2.9041 5.72858 2.9041 6.62739 3.8277C7.52614 4.75129 7.52614 6.24871 6.62739 7.17233Z" />
</svg>
