<svg width="123" height="139" viewBox="0 0 123 139" fill="none" xmlns="http://www.w3.org/2000/svg">
<path d="M61.5074 136.122L61.5 138.979C61.5 135.228 64.1463 131.258 68.1604 126.623C80.9534 111.856 107.719 102.353 107.719 102.353L123 8.88208C123 8.88208 101.502 63.4792 96.0682 79.5816C91.2736 93.7869 62.0625 135.207 61.5074 136.122Z" fill="url(#paint0_linear)"/>
<path d="M61.5074 136.122L61.5 138.979C61.5 135.228 64.1463 131.258 68.1604 126.623C80.9534 111.856 107.719 102.353 107.719 102.353L123 8.88208C123 8.88208 101.502 63.4792 96.0682 79.5816C91.2736 93.7869 62.0625 135.207 61.5074 136.122Z" fill="url(#paint1_linear)"/>
<path d="M61.4898 136.122L61.4972 138.979C61.4972 135.228 58.8509 131.258 54.8368 126.623C42.0438 111.856 15.2783 102.353 15.2783 102.353L0 8.88208C0 8.88208 21.4976 63.4792 26.9315 79.5816C31.7237 93.7869 60.9373 135.207 61.4898 136.122Z" fill="url(#paint2_linear)"/>
<path d="M61.4898 136.122L61.4972 138.979C61.4972 135.228 58.8509 131.258 54.8368 126.623C42.0438 111.856 15.2783 102.353 15.2783 102.353L0 8.88208C0 8.88208 21.4976 63.4792 26.9315 79.5816C31.7237 93.7869 60.9373 135.207 61.4898 136.122Z" fill="url(#paint3_linear)"/>
<path d="M107.712 0C107.712 0 101.495 63.358 96.0609 79.4605C91.2663 93.6657 62.0478 138.085 61.4928 139C60.9377 138.085 31.7266 93.6657 26.9345 79.4605C21.5006 63.3604 15.2837 0 15.2837 0C15.2837 0 40.6591 79.8736 61.4977 79.876H61.5002C82.3387 79.8736 107.712 0 107.712 0Z" fill="url(#paint4_linear)"/>
<path d="M61.5074 136.122L61.5 138.979C61.5 135.228 64.1463 131.258 68.1604 126.623C80.9534 111.856 107.719 102.353 107.719 102.353L123 8.88208C123 8.88208 101.502 63.4792 96.0682 79.5816C91.2736 93.7869 62.0625 135.207 61.5074 136.122Z" fill="url(#paint5_linear)"/>
<path d="M61.5074 136.122L61.5 138.979C61.5 135.228 64.1463 131.258 68.1604 126.623C80.9534 111.856 107.719 102.353 107.719 102.353L123 8.88208C123 8.88208 101.502 63.4792 96.0682 79.5816C91.2736 93.7869 62.0625 135.207 61.5074 136.122Z" fill="url(#paint6_linear)"/>
<path d="M61.4898 136.122L61.4972 138.979C61.4972 135.228 58.8509 131.258 54.8368 126.623C42.0438 111.856 15.2783 102.353 15.2783 102.353L0 8.88208C0 8.88208 21.4976 63.4792 26.9315 79.5816C31.7237 93.7869 60.9373 135.207 61.4898 136.122Z" fill="url(#paint7_linear)"/>
<path d="M61.4898 136.122L61.4972 138.979C61.4972 135.228 58.8509 131.258 54.8368 126.623C42.0438 111.856 15.2783 102.353 15.2783 102.353L0 8.88208C0 8.88208 21.4976 63.4792 26.9315 79.5816C31.7237 93.7869 60.9373 135.207 61.4898 136.122Z" fill="url(#paint8_linear)"/>
<path d="M107.712 0C107.712 0 101.495 63.358 96.0609 79.4605C91.2663 93.6657 62.0478 138.085 61.4928 139C60.9377 138.085 31.7266 93.6657 26.9345 79.4605C21.5006 63.3604 15.2837 0 15.2837 0C15.2837 0 40.6591 79.8736 61.4977 79.876H61.5002C82.3387 79.8736 107.712 0 107.712 0Z" fill="url(#paint9_linear)"/>
<defs>
<linearGradient id="paint0_linear" x1="122.999" y1="73.9315" x2="61.5" y2="73.9315" gradientUnits="userSpaceOnUse">
<stop/>
<stop offset="1" stop-color="white"/>
</linearGradient>
<linearGradient id="paint1_linear" x1="137.933" y1="92.8236" x2="81.9247" y2="68.1673" gradientUnits="userSpaceOnUse">
<stop stop-color="white" stop-opacity="0"/>
<stop offset="0.8994"/>
</linearGradient>
<linearGradient id="paint2_linear" x1="-0.000594679" y1="73.9315" x2="61.4983" y2="73.9315" gradientUnits="userSpaceOnUse">
<stop/>
<stop offset="1" stop-color="white"/>
</linearGradient>
<linearGradient id="paint3_linear" x1="-14.9351" y1="92.8236" x2="41.0736" y2="68.1673" gradientUnits="userSpaceOnUse">
<stop stop-color="white" stop-opacity="0"/>
<stop offset="0.8994"/>
</linearGradient>
<linearGradient id="paint4_linear" x1="15.2848" y1="69.4988" x2="107.713" y2="69.4988" gradientUnits="userSpaceOnUse">
<stop/>
<stop offset="0.00264811" stop-color="#010101"/>
<stop offset="0.0809" stop-color="#1E1E1E"/>
<stop offset="0.1641" stop-color="#343434"/>
<stop offset="0.2549" stop-color="#444444"/>
<stop offset="0.3581" stop-color="#4D4D4D"/>
<stop offset="0.5" stop-color="#505050"/>
<stop offset="0.6291" stop-color="#4D4D4D"/>
<stop offset="0.7351" stop-color="#434343"/>
<stop offset="0.8329" stop-color="#313131"/>
<stop offset="0.9253" stop-color="#191919"/>
<stop offset="1"/>
</linearGradient>
<linearGradient id="paint5_linear" x1="122.999" y1="73.9315" x2="61.5" y2="73.9315" gradientUnits="userSpaceOnUse">
<stop/>
<stop offset="1" stop-color="white"/>
</linearGradient>
<linearGradient id="paint6_linear" x1="137.933" y1="92.8236" x2="81.9247" y2="68.1673" gradientUnits="userSpaceOnUse">
<stop stop-color="white" stop-opacity="0"/>
<stop offset="0.8994"/>
</linearGradient>
<linearGradient id="paint7_linear" x1="-0.000594679" y1="73.9315" x2="61.4983" y2="73.9315" gradientUnits="userSpaceOnUse">
<stop/>
<stop offset="1" stop-color="white"/>
</linearGradient>
<linearGradient id="paint8_linear" x1="-14.9351" y1="92.8236" x2="41.0736" y2="68.1673" gradientUnits="userSpaceOnUse">
<stop stop-color="white" stop-opacity="0"/>
<stop offset="0.8994"/>
</linearGradient>
<linearGradient id="paint9_linear" x1="15.2848" y1="69.4988" x2="107.713" y2="69.4988" gradientUnits="userSpaceOnUse">
<stop/>
<stop offset="0.00264811" stop-color="#010101"/>
<stop offset="0.0809" stop-color="#1E1E1E"/>
<stop offset="0.1641" stop-color="#343434"/>
<stop offset="0.2549" stop-color="#444444"/>
<stop offset="0.3581" stop-color="#4D4D4D"/>
<stop offset="0.5" stop-color="#505050"/>
<stop offset="0.6291" stop-color="#4D4D4D"/>
<stop offset="0.7351" stop-color="#434343"/>
<stop offset="0.8329" stop-color="#313131"/>
<stop offset="0.9253" stop-color="#191919"/>
<stop offset="1"/>
</linearGradient>
</defs>
</svg>
