<svg width="18" height="20" viewBox="0 0 18 20" fill="none" xmlns="http://www.w3.org/2000/svg">
<g filter="url(#filter0_dd)">
<path fill-rule="evenodd" clip-rule="evenodd" d="M7.8125 2.22727C7.8125 2.10175 7.93842 2 8.09375 2H10.9062C11.0616 2 11.1875 2.10175 11.1875 2.22727V2.45455H13.4375C13.7482 2.45455 14 2.65805 14 2.90909V3.36364C14 3.61467 13.7482 3.81818 13.4375 3.81818H5.5625C5.25184 3.81818 5 3.61467 5 3.36364V2.90909C5 2.65805 5.25184 2.45455 5.5625 2.45455H7.8125V2.22727ZM6.15906 4.27273C5.83541 4.27273 5.57853 4.49288 5.59753 4.75396L6.09385 11.5721C6.11134 11.8124 6.35755 12 6.65539 12H12.3446C12.6425 12 12.8887 11.8124 12.9062 11.5721L13.4025 4.75396C13.4215 4.49288 13.1646 4.27273 12.8409 4.27273H6.15906Z" fill="#FDACAC"/>
</g>
<defs>
<filter id="filter0_dd" x="0" y="0" width="18" height="20" filterUnits="userSpaceOnUse" color-interpolation-filters="sRGB">
<feFlood flood-opacity="0" result="BackgroundImageFix"/>
<feColorMatrix in="SourceAlpha" type="matrix" values="0 0 0 0 0 0 0 0 0 0 0 0 0 0 0 0 0 0 127 0"/>
<feOffset dx="-1" dy="4"/>
<feGaussianBlur stdDeviation="2"/>
<feColorMatrix type="matrix" values="0 0 0 0 0.0346354 0 0 0 0 0.0386161 0 0 0 0 0.0625 0 0 0 0.25 0"/>
<feBlend mode="normal" in2="BackgroundImageFix" result="effect1_dropShadow"/>
<feColorMatrix in="SourceAlpha" type="matrix" values="0 0 0 0 0 0 0 0 0 0 0 0 0 0 0 0 0 0 127 0"/>
<feOffset dx="1" dy="1"/>
<feGaussianBlur stdDeviation="1.5"/>
<feColorMatrix type="matrix" values="0 0 0 0 0 0 0 0 0 0 0 0 0 0 0 0 0 0 0.25 0"/>
<feBlend mode="normal" in2="effect1_dropShadow" result="effect2_dropShadow"/>
<feBlend mode="normal" in="SourceGraphic" in2="effect2_dropShadow" result="shape"/>
</filter>
</defs>
</svg>
