<svg width="15" height="14" viewBox="0 0 15 14" fill="none" xmlns="http://www.w3.org/2000/svg">
<path d="M4.5 11.2C3.675 11.2 3.0075 11.83 3.0075 12.6C3.0075 13.37 3.675 14 4.5 14C5.325 14 6 13.37 6 12.6C6 11.83 5.325 11.2 4.5 11.2ZM0 0V1.4H1.5L4.2 6.713L3.1875 8.428C3.0675 8.624 3 8.855 3 9.1C3 9.87 3.675 10.5 4.5 10.5H13.5V9.1H4.815C4.71 9.1 4.6275 9.023 4.6275 8.925L4.65 8.841L5.325 7.7H10.9125C11.475 7.7 11.97 7.413 12.225 6.979L14.91 2.436C14.97 2.338 15 2.219 15 2.1C15 1.715 14.6625 1.4 14.25 1.4H3.1575L2.4525 0H0ZM12 11.2C11.175 11.2 10.5075 11.83 10.5075 12.6C10.5075 13.37 11.175 14 12 14C12.825 14 13.5 13.37 13.5 12.6C13.5 11.83 12.825 11.2 12 11.2Z" fill="#FDACAC"/>
</svg>
