<svg width="21" height="20" viewBox="0 0 21 20" fill="none" xmlns="http://www.w3.org/2000/svg">
<g filter="url(#filter0_bii)">
<path fill-rule="evenodd" clip-rule="evenodd" d="M9.662 2.55432C8.33777 2.42951 7.10684 0.929688 5.77673 0.929688C3.01531 0.929688 0.776733 3.16826 0.776733 5.92969V8.56168V11.4338V12.0658C0.776733 15.3795 3.46302 18.0658 6.77673 18.0658H14.8067C18.1204 18.0658 20.8067 15.3795 20.8067 12.0658V8.56169C20.8067 5.24798 18.1204 2.56169 14.8067 2.56169H11.9568C11.9567 2.56169 11.9567 2.56167 11.9567 2.56164C11.9566 2.56161 11.9566 2.56159 11.9566 2.56159H9.81707C9.76477 2.56159 9.71304 2.55913 9.662 2.55432Z" fill="white" fill-opacity="0.03"/>
</g>
<line x1="6.11108" y1="5.54004" x2="14.6149" y2="5.54004" stroke="#17B9F9" stroke-width="4" stroke-linecap="round"/>
<g filter="url(#filter1_bii)">
<path d="M0.776733 10.5537C0.776733 7.79229 3.01531 5.55371 5.77673 5.55371H15.8067C18.5682 5.55371 20.8067 7.79229 20.8067 10.5537V14.9698C20.8067 17.7312 18.5682 19.9698 15.8067 19.9698H5.77673C3.0153 19.9698 0.776733 17.7312 0.776733 14.9698V10.5537Z" fill="white" fill-opacity="0.03"/>
</g>
<defs>
<filter id="filter0_bii" x="-85.2233" y="-85.0703" width="192.03" height="189.136" filterUnits="userSpaceOnUse" color-interpolation-filters="sRGB">
<feFlood flood-opacity="0" result="BackgroundImageFix"/>
<feGaussianBlur in="BackgroundImage" stdDeviation="43"/>
<feComposite in2="SourceAlpha" operator="in" result="effect1_backgroundBlur"/>
<feBlend mode="normal" in="SourceGraphic" in2="effect1_backgroundBlur" result="shape"/>
<feColorMatrix in="SourceAlpha" type="matrix" values="0 0 0 0 0 0 0 0 0 0 0 0 0 0 0 0 0 0 127 0" result="hardAlpha"/>
<feOffset dy="4"/>
<feGaussianBlur stdDeviation="2"/>
<feComposite in2="hardAlpha" operator="arithmetic" k2="-1" k3="1"/>
<feColorMatrix type="matrix" values="0 0 0 0 1 0 0 0 0 1 0 0 0 0 1 0 0 0 0.15 0"/>
<feBlend mode="normal" in2="shape" result="effect2_innerShadow"/>
<feColorMatrix in="SourceAlpha" type="matrix" values="0 0 0 0 0 0 0 0 0 0 0 0 0 0 0 0 0 0 127 0" result="hardAlpha"/>
<feOffset/>
<feGaussianBlur stdDeviation="34"/>
<feComposite in2="hardAlpha" operator="arithmetic" k2="-1" k3="1"/>
<feColorMatrix type="matrix" values="0 0 0 0 1 0 0 0 0 1 0 0 0 0 1 0 0 0 0.05 0"/>
<feBlend mode="normal" in2="effect2_innerShadow" result="effect3_innerShadow"/>
</filter>
<filter id="filter1_bii" x="-85.2233" y="-80.4463" width="192.03" height="186.416" filterUnits="userSpaceOnUse" color-interpolation-filters="sRGB">
<feFlood flood-opacity="0" result="BackgroundImageFix"/>
<feGaussianBlur in="BackgroundImage" stdDeviation="43"/>
<feComposite in2="SourceAlpha" operator="in" result="effect1_backgroundBlur"/>
<feBlend mode="normal" in="SourceGraphic" in2="effect1_backgroundBlur" result="shape"/>
<feColorMatrix in="SourceAlpha" type="matrix" values="0 0 0 0 0 0 0 0 0 0 0 0 0 0 0 0 0 0 127 0" result="hardAlpha"/>
<feOffset dy="4"/>
<feGaussianBlur stdDeviation="2"/>
<feComposite in2="hardAlpha" operator="arithmetic" k2="-1" k3="1"/>
<feColorMatrix type="matrix" values="0 0 0 0 1 0 0 0 0 1 0 0 0 0 1 0 0 0 0.15 0"/>
<feBlend mode="normal" in2="shape" result="effect2_innerShadow"/>
<feColorMatrix in="SourceAlpha" type="matrix" values="0 0 0 0 0 0 0 0 0 0 0 0 0 0 0 0 0 0 127 0" result="hardAlpha"/>
<feOffset/>
<feGaussianBlur stdDeviation="34"/>
<feComposite in2="hardAlpha" operator="arithmetic" k2="-1" k3="1"/>
<feColorMatrix type="matrix" values="0 0 0 0 1 0 0 0 0 1 0 0 0 0 1 0 0 0 0.05 0"/>
<feBlend mode="normal" in2="effect2_innerShadow" result="effect3_innerShadow"/>
</filter>
</defs>
</svg>
