<svg width="21" height="22" viewBox="0 0 21 22" fill="none" xmlns="http://www.w3.org/2000/svg">
<ellipse cx="9.77672" cy="7.07477" rx="3.33333" ry="2.92633" fill="white"/>
<g filter="url(#filter0_bii)">
<path d="M18.9855 12.894C19.7897 12.8089 20.4 12.1306 20.4 11.3219V11.0296C20.4 10.221 19.7898 9.54272 18.9856 9.45757C18.3181 9.38689 17.7826 8.89583 17.5374 8.27095C17.5104 8.20213 17.4825 8.13378 17.4536 8.06593C17.1891 7.44388 17.2217 6.71403 17.6445 6.18666C18.1553 5.54964 18.1075 4.63099 17.5334 4.05039L17.352 3.86688C16.7824 3.29081 15.8679 3.24301 15.2414 3.75655C14.722 4.18226 13.995 4.21507 13.379 3.94771C13.319 3.92168 13.2586 3.89638 13.1979 3.87184C12.5702 3.61832 12.0766 3.07717 12.0068 2.40381C11.9224 1.58949 11.2362 0.970703 10.4175 0.970703H10.1967C9.37794 0.970703 8.69166 1.58957 8.60731 2.40397C8.53757 3.07725 8.04419 3.61844 7.41656 3.87193C7.35575 3.89649 7.29532 3.9218 7.23528 3.94785C6.61923 4.21519 5.89225 4.18228 5.37287 3.75657C4.7463 3.243 3.83179 3.29074 3.2621 3.86675L3.0805 4.05037C2.50629 4.63096 2.45844 5.54974 2.96923 6.18684C3.39198 6.71412 3.42467 7.44385 3.16019 8.06577C3.13122 8.13388 3.10318 8.20249 3.07608 8.27157C2.83102 8.89619 2.29562 9.38687 1.62838 9.45754C0.824229 9.5427 0.213989 10.221 0.213989 11.0296V11.3222C0.213989 12.1308 0.824229 12.8091 1.62838 12.8943C2.29562 12.9649 2.83098 13.4556 3.07596 14.0803C3.10303 14.1493 3.13104 14.2179 3.15997 14.2859C3.42441 14.9079 3.39189 15.6378 2.96909 16.1652C2.45839 16.8021 2.50628 17.7208 3.08043 18.3012L3.26209 18.4848C3.8317 19.0607 4.74596 19.1084 5.3724 18.595C5.8919 18.1692 6.61907 18.1365 7.23526 18.4038C7.29523 18.4298 7.35558 18.4551 7.41631 18.4796C8.04398 18.733 8.53737 19.2742 8.60711 19.9474C8.69146 20.7618 9.37774 21.3807 10.1965 21.3807H10.4173C11.2361 21.3807 11.9224 20.7618 12.0067 19.9474C12.0764 19.2742 12.5698 18.733 13.1975 18.4796C13.2583 18.4551 13.3186 18.4298 13.3786 18.4038C13.9948 18.1365 14.7219 18.1692 15.2414 18.5949C15.8678 19.1083 16.7821 19.0606 17.3517 18.4847L17.533 18.3013C18.1072 17.7208 18.1551 16.8021 17.6444 16.1651C17.2216 15.6377 17.1891 14.908 17.4535 14.286C17.4825 14.2179 17.5105 14.1492 17.5376 14.0801C17.7827 13.4554 18.3181 12.9646 18.9855 12.894ZM10.307 15.5609C7.91212 15.5609 5.96992 13.5977 5.96992 11.1758C5.96992 8.75371 7.91212 6.79056 10.307 6.79056C12.7017 6.79056 14.6439 8.75371 14.6439 11.1758C14.6439 13.5977 12.7017 15.5609 10.307 15.5609Z" fill="white" fill-opacity="0.03"/>
</g>
<defs>
<filter id="filter0_bii" x="-85.786" y="-85.0293" width="192.186" height="192.41" filterUnits="userSpaceOnUse" color-interpolation-filters="sRGB">
<feFlood flood-opacity="0" result="BackgroundImageFix"/>
<feGaussianBlur in="BackgroundImage" stdDeviation="43"/>
<feComposite in2="SourceAlpha" operator="in" result="effect1_backgroundBlur"/>
<feBlend mode="normal" in="SourceGraphic" in2="effect1_backgroundBlur" result="shape"/>
<feColorMatrix in="SourceAlpha" type="matrix" values="0 0 0 0 0 0 0 0 0 0 0 0 0 0 0 0 0 0 127 0" result="hardAlpha"/>
<feOffset dy="4"/>
<feGaussianBlur stdDeviation="2"/>
<feComposite in2="hardAlpha" operator="arithmetic" k2="-1" k3="1"/>
<feColorMatrix type="matrix" values="0 0 0 0 1 0 0 0 0 1 0 0 0 0 1 0 0 0 0.15 0"/>
<feBlend mode="normal" in2="shape" result="effect2_innerShadow"/>
<feColorMatrix in="SourceAlpha" type="matrix" values="0 0 0 0 0 0 0 0 0 0 0 0 0 0 0 0 0 0 127 0" result="hardAlpha"/>
<feOffset/>
<feGaussianBlur stdDeviation="34"/>
<feComposite in2="hardAlpha" operator="arithmetic" k2="-1" k3="1"/>
<feColorMatrix type="matrix" values="0 0 0 0 1 0 0 0 0 1 0 0 0 0 1 0 0 0 0.05 0"/>
<feBlend mode="normal" in2="effect2_innerShadow" result="effect3_innerShadow"/>
</filter>
</defs>
</svg>
